<svg width="32" height="32" viewBox="0 0 32 32" fill="none" xmlns="http://www.w3.org/2000/svg">
<path fill-rule="evenodd" clip-rule="evenodd" d="M1.67835 0.558594C0.889499 0.558594 0.25 1.1793 0.25 1.94496C0.25 2.71062 0.889499 3.33132 1.67835 3.33132H3.41981L8.51077 23.0966C7.01002 23.7436 5.96338 25.2029 5.96338 26.8995C5.96338 29.1966 7.88187 31.0586 10.2484 31.0586C12.615 31.0586 14.5335 29.1966 14.5335 26.8995C14.5335 26.4134 14.4475 25.9468 14.2896 25.5131H20.4907C20.3328 25.9468 20.2468 26.4134 20.2468 26.8995C20.2468 29.1966 22.1653 31.0586 24.5319 31.0586C26.8985 31.0586 28.8169 29.1966 28.8169 26.8995C28.8169 24.6024 26.8985 22.7404 24.5319 22.7404H11.3636L10.6495 19.9677H24.5319C27.4803 19.9677 29.2481 18.1597 30.2291 16.1634C31.1878 14.2125 31.5215 11.8809 31.6379 10.1851C31.7999 7.82333 29.7886 6.10405 27.5615 6.10405H7.07861L6.19122 2.65884C5.87328 1.4245 4.73066 0.558594 3.41981 0.558594H1.67835ZM24.5319 17.195H9.9353L7.79278 8.87677H27.5615C28.3516 8.87677 28.8259 9.44068 28.7875 10.0008C28.6789 11.5832 28.375 13.4959 27.6508 14.9697C26.9489 16.3979 25.9889 17.195 24.5319 17.195ZM24.5319 28.2773C23.7479 28.2773 23.1124 27.6605 23.1124 26.8995C23.1124 26.1385 23.7479 25.5217 24.5319 25.5217C25.3159 25.5217 25.9514 26.1385 25.9514 26.8995C25.9514 27.6605 25.3159 28.2773 24.5319 28.2773ZM8.82889 26.8995C8.82889 27.6605 9.46443 28.2773 10.2484 28.2773C11.0324 28.2773 11.668 27.6605 11.668 26.8995C11.668 26.1385 11.0324 25.5217 10.2484 25.5217C9.46443 25.5217 8.82889 26.1385 8.82889 26.8995Z" fill="#E0C794"/>
</svg>
