<svg width="58" height="58" viewBox="0 0 58 58" fill="none" xmlns="http://www.w3.org/2000/svg">
<path fill-rule="evenodd" clip-rule="evenodd" d="M43.5 14.5H14.5C13.4977 14.5 12.6875 15.312 12.6875 16.3125C12.6875 17.3148 13.4977 18.125 14.5 18.125H43.5C44.5023 18.125 45.3125 17.3148 45.3125 16.3125C45.3125 15.312 44.5023 14.5 43.5 14.5ZM54.375 50.75C54.375 52.7419 52.4066 54.3967 50.4183 54.3967H7.20287C5.21456 54.3967 3.60144 52.7836 3.60144 50.7917V7.54906C3.60144 5.55713 5.25987 3.625 7.25 3.625H50.75C52.7401 3.625 54.375 5.25987 54.375 7.25V50.75ZM50.75 0H7.25C3.27338 0 0 3.56881 0 7.54906V50.7917C0 54.7738 3.22444 58 7.20287 58H50.4183C54.3967 58 58 54.7303 58 50.75V7.25C58 3.26975 54.7266 0 50.75 0ZM43.5 36.25H14.5C13.4977 36.25 12.6875 37.062 12.6875 38.0625C12.6875 39.0648 13.4977 39.875 14.5 39.875H43.5C44.5023 39.875 45.3125 39.0648 45.3125 38.0625C45.3125 37.062 44.5023 36.25 43.5 36.25ZM43.5 25.375H14.5C13.4977 25.375 12.6875 26.187 12.6875 27.1875C12.6875 28.1898 13.4977 29 14.5 29H43.5C44.5023 29 45.3125 28.1898 45.3125 27.1875C45.3125 26.187 44.5023 25.375 43.5 25.375Z" fill="#F8F3EE"/>
</svg>
