<svg width="40" height="40" viewBox="0 0 40 40" fill="none" xmlns="http://www.w3.org/2000/svg">
<g clip-path="url(#clip0_82_260)">
<path d="M34.375 8.75H21.875V0.625C21.875 0.45924 21.8092 0.300269 21.6919 0.183058C21.5747 0.065848 21.4158 0 21.25 0L18.75 0C18.5842 0 18.4253 0.065848 18.3081 0.183058C18.1908 0.300269 18.125 0.45924 18.125 0.625V8.75H5.625C5.45924 8.75 5.30027 8.81585 5.18306 8.93306C5.06585 9.05027 5 9.20924 5 9.375V11.875C5 12.0408 5.06585 12.1997 5.18306 12.3169C5.30027 12.4342 5.45924 12.5 5.625 12.5H7.55437L8.35375 21.2963C8.35375 21.3044 8.35375 21.3119 8.35375 21.3194L10 39.4319C10.0142 39.5876 10.0863 39.7323 10.202 39.8375C10.3177 39.9427 10.4686 40.0007 10.625 40H29.375C29.5314 40.0007 29.6823 39.9427 29.798 39.8375C29.9137 39.7323 29.9858 39.5876 30 39.4319L31.65 21.3194C31.65 21.3119 31.65 21.3044 31.65 21.2963L32.4456 12.5H34.375C34.5408 12.5 34.6997 12.4342 34.8169 12.3169C34.9342 12.1997 35 12.0408 35 11.875V9.375C35 9.20924 34.9342 9.05027 34.8169 8.93306C34.6997 8.81585 34.5408 8.75 34.375 8.75ZM19.375 1.25H20.625V8.75H19.375V1.25ZM11.1962 38.75L9.6375 21.6125C10.2881 21.3121 11.0102 21.2014 11.7209 21.2931C12.4315 21.3847 13.1019 21.675 13.655 22.1306C13.7682 22.2275 13.9123 22.2807 14.0612 22.2807C14.2102 22.2807 14.3543 22.2275 14.4675 22.1306C15.1387 21.5583 15.9929 21.2458 16.875 21.25C17.3738 21.2504 17.8675 21.3504 18.3271 21.5443C18.7866 21.7381 19.2028 22.0218 19.5512 22.3788C19.6712 22.496 19.8323 22.5617 20 22.5617C20.1677 22.5617 20.3288 22.496 20.4487 22.3788C20.7972 22.0218 21.2134 21.7381 21.6729 21.5443C22.1325 21.3504 22.6262 21.2504 23.125 21.25C24.0062 21.2464 24.8595 21.5588 25.53 22.1306C25.6432 22.2275 25.7873 22.2807 25.9363 22.2807C26.0852 22.2807 26.2293 22.2275 26.3425 22.1306C26.8958 21.6755 27.5662 21.3855 28.2767 21.2939C28.9873 21.2022 29.7093 21.3127 30.36 21.6125L28.8037 38.75H11.1962ZM30.4794 20.325C29.7323 20.0557 28.9326 19.9646 28.144 20.059C27.3555 20.1534 26.5999 20.4307 25.9375 20.8688C25.1096 20.301 24.1289 19.998 23.125 20C21.9888 20.0019 20.8869 20.3897 20 21.1C19.1131 20.3897 18.0112 20.0019 16.875 20C15.8711 19.998 14.8904 20.301 14.0625 20.8688C13.4 20.4309 12.6444 20.1539 11.8559 20.0596C11.0673 19.9653 10.2677 20.0564 9.52063 20.3256L8.8125 12.5H31.1938L30.4794 20.325ZM33.75 11.25H6.25V10H33.75V11.25Z" fill="#FFFEFE"/>
</g>
<defs>
<clipPath id="clip0_82_260">
<rect width="40" height="40" fill="white"/>
</clipPath>
</defs>
</svg>
