<svg width="37" height="37" viewBox="0 0 37 37" fill="none" xmlns="http://www.w3.org/2000/svg">
<path fill-rule="evenodd" clip-rule="evenodd" d="M1.66667 0C0.7462 0 0 0.7462 0 1.66667C0 2.58713 0.7462 3.33333 1.66667 3.33333H3.6987L9.63908 27.0948C7.88793 27.8727 6.66667 29.627 6.66667 31.6667C6.66667 34.4282 8.90525 36.6667 11.6667 36.6667C14.4281 36.6667 16.6667 34.4282 16.6667 31.6667C16.6667 31.0823 16.5663 30.5213 16.3822 30H23.6178C23.4337 30.5213 23.3333 31.0823 23.3333 31.6667C23.3333 34.4282 25.5718 36.6667 28.3333 36.6667C31.0948 36.6667 33.3333 34.4282 33.3333 31.6667C33.3333 28.9052 31.0948 26.6667 28.3333 26.6667H12.968L12.1346 23.3333H28.3333C31.7737 23.3333 33.8365 21.1598 34.9812 18.7598C36.0998 16.4145 36.4892 13.6115 36.625 11.5728C36.814 8.73357 34.4672 6.66667 31.8685 6.66667H7.96797L6.93252 2.52488C6.56153 1.04098 5.22827 0 3.6987 0H1.66667ZM28.3333 20H11.3013L8.8013 10H31.8685C32.7903 10 33.3438 10.6779 33.299 11.3513C33.1723 13.2537 32.8177 15.553 31.9727 17.3248C31.1537 19.0418 30.0335 20 28.3333 20ZM28.3333 33.323C27.4185 33.323 26.677 32.5815 26.677 31.6667C26.677 30.7518 27.4185 30.0103 28.3333 30.0103C29.2482 30.0103 29.9897 30.7518 29.9897 31.6667C29.9897 32.5815 29.2482 33.323 28.3333 33.323ZM10.0103 31.6667C10.0103 32.5815 10.7519 33.323 11.6667 33.323C12.5815 33.323 13.3231 32.5815 13.3231 31.6667C13.3231 30.7518 12.5815 30.0103 11.6667 30.0103C10.7519 30.0103 10.0103 30.7518 10.0103 31.6667Z" fill="white"/>
</svg>
