<svg width="38" height="38" viewBox="0 0 38 38" fill="none" xmlns="http://www.w3.org/2000/svg">
<path d="M35.7787 3.56625C34.8999 2.56625 33.7012 2.08 32.1155 2.08C30.9555 2.08 29.8487 2.25187 28.7918 2.55625L28.7905 2.55437C28.6054 2.33688 28.3908 2.14629 28.153 1.98813C28.0962 1.89313 28.0343 1.80062 27.9587 1.71375C27.5362 1.2275 26.8787 0.9375 26.2005 0.9375C25.7517 0.936975 25.3141 1.07732 24.9493 1.33875C24.8294 1.30759 24.7062 1.29121 24.5824 1.29L24.5687 1.29125C24.3274 1.0475 23.998 0.835625 23.5374 0.835625C23.1074 0.835625 22.6887 1.0275 22.2568 1.42188C21.733 1.90062 21.478 2.5425 21.5043 3.23875L20.8849 3.105L20.798 1.90812L17.1918 1.26875L16.8868 2.24062L16.4224 2.14C16.3537 1.49563 15.8987 0.65375 14.1237 0.29875C13.9585 0.266628 13.7907 0.250304 13.6224 0.25C12.6305 0.25 11.8168 0.816875 11.0993 1.31687C10.6893 1.6025 10.3024 1.87188 9.93928 2.005C9.22866 2.265 8.84303 2.87813 8.95616 3.56625C8.96303 3.60375 8.97491 3.64188 8.98428 3.67937C7.60553 4.28687 6.35053 5.14875 5.30303 6.32562C5.1002 6.41993 4.90466 6.52919 4.71803 6.6525C3.56428 7.42 3.44803 8.51375 3.43241 9.21438C3.28272 9.54431 3.14657 9.88021 3.02428 10.2213C1.90928 10.8131 1.35053 11.9525 1.60428 13.1569C1.66053 13.42 1.75741 13.6644 1.87928 13.89C1.94366 14.0612 2.02678 14.2206 2.12553 14.3694C2.09907 14.866 2.07949 15.3629 2.06678 15.86C1.65196 16.2798 1.26351 16.7248 0.903656 17.1925C0.333656 17.8175 0.138656 18.4244 0.310531 19.0094C0.458656 19.5175 0.833656 19.84 1.26803 20.06C1.17931 20.163 1.10141 20.2748 1.03553 20.3937C0.718656 20.9694 0.876156 21.4062 0.996781 21.6163C1.15053 21.88 1.47678 22.1938 2.15928 22.1938C2.19678 22.1938 2.24053 22.1863 2.27928 22.1838C2.45553 23.95 2.67491 25.1112 2.73116 25.5419L2.31616 25.89L2.53241 26.5138L3.34866 26.4562L2.94116 27.01L3.32991 28.1169L2.51428 28.5731L2.56366 29.7075L3.27428 30.0063C3.33178 30.2612 3.27053 30.8181 3.32928 31.0563L4.36866 31.095L3.98241 32.365L3.52741 32.3037L3.44741 33.5731L4.14678 33.7669L4.79553 34.7406L5.04741 35.7512L6.20553 35.905C6.54616 36.2006 7.18491 37.2406 7.54491 37.3931L7.54928 37.3969L7.55053 37.3956C8.04803 37.6075 8.56178 37.7044 9.08428 37.7494C9.18866 37.7363 9.37053 37.6987 9.60116 37.6081C9.76866 37.6506 9.95115 37.6756 10.153 37.6756C15.3743 37.6756 37.088 21.6231 37.3655 18.8694C38.1943 10.6056 37.6899 5.7425 35.7787 3.56625ZM22.8649 2.1C23.1418 1.84688 23.3593 1.75 23.5374 1.75C24.1112 1.75 24.2787 2.74625 24.6868 2.74625C24.8205 2.74625 24.9812 2.63875 25.1905 2.3525C25.448 1.99875 25.8255 1.85125 26.2012 1.85125C26.8943 1.85125 27.5818 2.35438 27.4993 2.99125C27.4993 2.99125 24.8993 4.87875 23.7387 4.87875C23.608 4.87875 23.4962 4.855 23.408 4.80188C22.4499 4.23125 21.9805 2.90875 22.8649 2.1ZM16.2455 3.15625C16.4643 3.25938 16.6693 3.34188 16.863 3.40313L16.433 4.71375L20.813 5.16875L20.7349 4.14313C21.0693 4.20375 21.4243 4.21875 21.7324 4.2225C21.9886 4.79151 22.4125 5.26865 22.9474 5.59C23.1724 5.72437 23.4387 5.79375 23.7387 5.79375C23.8505 5.79375 23.9699 5.77937 24.093 5.75937C23.3845 6.3347 22.6964 6.93465 22.0299 7.55813C22.148 6.6475 21.7612 6.14188 21.4755 5.9075C21.2594 5.72807 20.9871 5.63029 20.7062 5.63125C19.9349 5.63125 19.3424 6.30687 18.7143 7.02125C18.6655 7.07687 18.6099 7.14062 18.5518 7.205L17.5718 5.86188L13.0593 8.47375L14.533 9.60063C14.3529 9.85523 14.2652 10.1637 14.2843 10.475C14.3512 11.6 15.6637 12.0869 16.938 12.415C17.0799 12.4513 17.2287 12.47 17.3812 12.47C17.7037 12.47 18.0399 12.3825 18.3787 12.2312C17.952 13.054 17.5475 13.8881 17.1655 14.7325L16.7212 14.5594L15.8199 14.2081L14.1324 12.3675L13.8312 12.0394L13.3905 12.0788L13.0962 12.105C13.5443 11.0312 13.3837 9.85 13.0443 9.205C12.8793 8.88883 12.6983 8.58134 12.5018 8.28375L13.5824 7.77938L13.4237 5.70875L13.3974 5.69375C14.4918 5.17312 15.7755 4.21688 16.2455 3.15625ZM20.2074 9.4075C20.1549 9.46625 20.0987 9.5275 20.0493 9.585C19.9179 9.73972 19.793 9.89986 19.6749 10.065C18.928 10.9019 18.0455 11.555 17.3818 11.555C17.3076 11.5553 17.2338 11.5465 17.1618 11.5287C12.2487 10.2644 17.9637 8.84437 18.6862 8.34688C19.2012 7.99188 20.1262 6.54625 20.7055 6.54625C20.7774 6.54625 20.8443 6.56812 20.9037 6.6175C21.4687 7.08 21.0118 8.29688 20.2074 9.4075ZM11.2199 23.8425C10.7999 23.8425 10.2524 23.4675 9.5149 22.4875C8.90428 21.6781 11.7155 17.9394 13.5312 17.9394C13.8855 17.9394 14.2024 18.0825 14.4487 18.4163C15.1674 19.3931 13.3205 19.8006 13.1299 20.0525C12.5737 20.7837 12.4199 23.8425 11.2199 23.8425ZM13.053 27.2212L13.0443 27.2738C12.9835 27.6955 12.9183 28.1165 12.8487 28.5369L12.2899 27.87L12.9418 27.09L13.053 27.2212ZM11.5005 27.605L10.8493 28.3825L10.1968 27.605L10.8493 26.8244L11.5005 27.605ZM10.5737 13.9563C10.7562 13.9563 10.9293 13.9325 11.088 13.8869C11.4008 13.7913 11.6973 13.6489 11.9674 13.4644L12.6655 15.1831L8.17491 14.0931L7.59491 15.4606C6.96674 15.1408 6.29786 14.9083 5.60678 14.7694C6.37803 14.1469 6.90428 13.1762 7.24428 12.2837C7.89553 13.0025 9.41616 13.9563 10.5737 13.9563ZM9.60991 10.0469C9.84366 9.76562 10.0355 7.93437 10.7537 7.93437C11.1043 7.93437 11.5787 8.37 12.2455 9.63313C12.6705 10.4412 12.6268 12.4863 10.838 13.0075C10.7587 13.0306 10.6693 13.0413 10.5743 13.0413C9.71928 13.0413 8.31303 12.1763 7.84366 11.595C6.59241 10.0469 9.39616 10.3025 9.60991 10.0469ZM12.7199 15.3163L13.2018 16.5031L13.3899 16.9644L13.8749 17.0562L13.9949 17.0788C13.8429 17.0433 13.6873 17.0253 13.5312 17.025C12.7668 17.025 11.9899 17.415 11.2855 17.9675L12.7199 15.3163ZM13.4993 21.7038C13.5849 21.3838 13.7062 20.9262 13.8012 20.7025L13.9218 20.6456C14.1799 20.5244 14.5018 20.3713 14.7887 20.1556C14.3968 21.03 14.0724 21.7013 13.8462 22.0087C13.7062 22.1994 13.508 22.3638 13.2724 22.5106C13.3587 22.235 13.4318 21.96 13.4993 21.7038ZM14.0149 17.0825L15.7274 17.4031L15.9655 17.4475L15.488 18.5575C15.4351 18.308 15.3277 18.0733 15.1737 17.87C14.8743 17.4631 14.4737 17.1931 14.0149 17.0825ZM15.8924 16.5037L14.0393 16.1569L12.7768 13.0494L13.4674 12.9888L15.298 14.985L16.3949 15.4125L15.8924 16.5037ZM10.2474 2.865C11.4143 2.4375 12.4287 1.165 13.6224 1.165C13.7299 1.165 13.8387 1.175 13.948 1.19688C17.6512 1.93688 13.8843 4.6875 12.388 5.12625L11.6024 4.68563L11.3362 4.92812C10.3974 4.4075 9.20178 3.24688 10.2474 2.865ZM9.44366 4.53688C9.76178 4.93125 10.1943 5.29 10.6355 5.56687L9.43053 6.665L9.51553 7.78187C9.23991 8.22062 9.08366 8.76313 8.96741 9.16875L8.93678 9.27437L8.89303 9.28C8.58928 9.32 8.22241 9.37187 7.87053 9.48C7.88428 8.8675 7.80116 8.08188 7.36428 7.55313C7.22212 7.37816 7.04242 7.23742 6.83847 7.14135C6.63453 7.04527 6.41159 6.99632 6.18616 6.99813C6.13616 6.99813 6.08491 7.0075 6.03491 7.01188C6.92428 6.20875 8.15803 5.33313 9.44366 4.53688ZM3.54553 11.785C5.47991 10.8725 3.74491 9.2475 5.33553 8.23187C5.68741 8.00688 5.96616 7.91313 6.18616 7.91313C7.07991 7.91313 7.00303 9.46375 6.91491 10.0744C6.83036 10.1787 6.7617 10.295 6.71116 10.4194C6.61489 10.6698 6.59446 10.943 6.65241 11.205C6.29803 12.4113 5.62803 13.9006 4.57553 14.3606C4.39212 14.4432 4.19353 14.4866 3.99241 14.4881C2.69303 14.4881 1.92866 12.5481 3.54553 11.785ZM4.28366 27.6119L4.69803 26.6475L5.52803 27.1713L5.11366 28.1356L4.28366 27.6119ZM4.76428 24.9769L5.38741 23.5256C5.45366 23.5388 5.53241 23.54 5.60553 23.5462L6.75428 24.2706L6.09178 25.8156L4.76428 24.9769ZM4.85116 29.3856L5.26616 28.4206L6.09553 28.945L5.68053 29.9081L4.85116 29.3856ZM6.67616 34.5725L6.22241 34.2869L5.96741 34.8794L5.13741 34.3575L5.55241 33.3919L6.00616 33.6787L6.26053 33.085L7.09053 33.6081L6.67616 34.5725ZM7.35116 28.6131L6.52116 28.0906L6.93616 27.125L7.76616 27.6494L7.35116 28.6131ZM5.33616 22.6375C6.42928 22.3956 7.80553 21.8062 8.67616 21.395C8.44553 22.0725 8.48178 22.6269 8.79428 23.0419C8.86053 23.13 8.92428 23.2075 8.98928 23.2887C7.69428 23.2431 6.38053 23.0187 5.33616 22.6375ZM9.03991 20.1963C8.78491 20.3563 5.76366 21.8344 4.49678 21.8344C3.96366 21.8344 3.74116 21.5719 4.16741 20.8381C4.17803 20.8319 4.18053 20.8287 4.17428 20.8287C4.10178 20.8287 2.82928 21.28 2.15866 21.28C1.82678 21.28 1.64303 21.1694 1.82491 20.8394C2.12053 20.3044 2.83866 20.165 3.32553 19.7994C3.26178 19.5162 0.00115588 19.4719 1.59303 17.785C1.59366 17.7838 3.32428 15.5344 4.17741 15.5344C7.79928 15.535 11.1212 18.9075 9.03991 20.1963ZM9.81553 29.9081L10.4668 30.6887L9.81553 31.4669L9.16303 30.6887L9.81553 29.9081ZM10.2162 35.6587L9.56366 34.8781L10.2162 34.1L10.8674 34.8781L10.2162 35.6587ZM10.6512 32.51L11.303 31.7294L11.9549 32.51L11.303 33.2894L10.6512 32.51ZM36.188 18.7256C35.7149 20.5444 18.3599 33.985 11.663 36.1606C12.5805 34.8181 13.5355 32.25 14.2199 27.4513C15.6493 17.4225 22.1474 3.29938 32.1149 3.29938C33.3793 3.29938 34.2374 3.63375 34.8962 4.38312C36.5443 6.25938 36.9655 10.9569 36.188 18.7256Z" fill="#FFF7F7"/>
</svg>
