<svg width="40" height="40" viewBox="0 0 40 40" fill="none" xmlns="http://www.w3.org/2000/svg">
<path d="M24.4482 24.3138L25.052 24.9669L25.6564 24.315L25.0532 23.6606L24.4482 24.3138Z" fill="#FFF7F7"/>
<path d="M25.2402 15.7457L25.8434 16.3994L26.4465 15.7457L25.8446 15.0925L25.2402 15.7457Z" fill="#FFF7F7"/>
<path d="M34.6724 15.7457L35.2755 16.3994L35.8786 15.7457L35.2755 15.0925L34.6724 15.7457Z" fill="#FFF7F7"/>
<path d="M34.1394 8.37817L33.5356 9.0313L34.1394 9.68505L34.7431 9.0313L34.1394 8.37817Z" fill="#FFF7F7"/>
<path d="M29.3818 20.4088L29.9843 21.0606L30.5881 20.4088L29.9843 19.7544L29.3818 20.4088Z" fill="#FFF7F7"/>
<path d="M30.7769 12.725L31.3794 13.3775L31.9837 12.725L31.3794 12.0713L30.7769 12.725Z" fill="#FFF7F7"/>
<path d="M26.1382 10.4506L26.7407 11.1031L27.3451 10.4506L26.7407 9.7981L26.1382 10.4506Z" fill="#FFF7F7"/>
<path d="M20.4458 20.0687L21.0502 20.7199L21.6533 20.0687L21.0502 19.4155L20.4458 20.0687Z" fill="#FFF7F7"/>
<path d="M19.0566 28.3543L19.6591 29.0068L20.2641 28.3543L19.6591 27.7L19.0566 28.3543Z" fill="#FFF7F7"/>
<path d="M36.7789 4.56625C35.9002 3.56625 34.7014 3.08 33.1158 3.08C31.9558 3.08 30.8489 3.25187 29.792 3.55625L29.7908 3.55437C29.6057 3.33688 29.3911 3.14629 29.1533 2.98813C29.0964 2.89313 29.0345 2.80062 28.9589 2.71375C28.5364 2.2275 27.8789 1.9375 27.2008 1.9375C26.752 1.93698 26.3143 2.07732 25.9495 2.33875C25.8297 2.30759 25.7065 2.29121 25.5826 2.29L25.5689 2.29125C25.3277 2.0475 24.9983 1.83563 24.5376 1.83563C24.1076 1.83563 23.6889 2.0275 23.257 2.42188C22.7333 2.90062 22.4783 3.5425 22.5045 4.23875L21.8851 4.105L21.7983 2.90812L18.192 2.26875L17.887 3.24062L17.4226 3.14C17.3539 2.49563 16.8989 1.65375 15.1239 1.29875C14.9587 1.26663 14.7909 1.2503 14.6227 1.25C13.6308 1.25 12.817 1.81687 12.0995 2.31687C11.6895 2.6025 11.3026 2.87188 10.9395 3.005C10.2289 3.265 9.84328 3.87813 9.9564 4.56625C9.96327 4.60375 9.97515 4.64188 9.98452 4.67937C8.60577 5.28687 7.35077 6.14875 6.30327 7.32562C6.10044 7.41993 5.9049 7.52919 5.71828 7.6525C4.56452 8.42 4.44827 9.51375 4.43265 10.2144C4.28297 10.5443 4.14681 10.8802 4.02452 11.2213C2.90952 11.8131 2.35077 12.9525 2.60452 14.1569C2.66077 14.42 2.75765 14.6644 2.87952 14.89C2.9439 15.0612 3.02702 15.2206 3.12577 15.3694C3.09932 15.866 3.07973 16.3629 3.06702 16.86C2.65221 17.2798 2.26376 17.7248 1.9039 18.1925C1.3339 18.8175 1.1389 19.4244 1.31077 20.0094C1.4589 20.5175 1.8339 20.84 2.26827 21.06C2.17956 21.163 2.10165 21.2748 2.03577 21.3937C1.7189 21.9694 1.8764 22.4062 1.99702 22.6163C2.15077 22.88 2.47702 23.1938 3.15952 23.1938C3.19702 23.1938 3.24077 23.1863 3.27953 23.1838C3.45578 24.95 3.67515 26.1112 3.7314 26.5419L3.3164 26.89L3.53265 27.5138L4.3489 27.4562L3.9414 28.01L4.33015 29.1169L3.51452 29.5731L3.5639 30.7075L4.27452 31.0063C4.33202 31.2612 4.27077 31.8181 4.32952 32.0563L5.3689 32.095L4.98265 33.365L4.52765 33.3037L4.44765 34.5731L5.14702 34.7669L5.79577 35.7406L6.04765 36.7512L7.20577 36.905C7.5464 37.2006 8.18515 38.2406 8.54515 38.3931L8.54952 38.3969L8.55077 38.3956C9.04827 38.6075 9.56203 38.7044 10.0845 38.7494C10.1889 38.7363 10.3708 38.6987 10.6014 38.6081C10.7689 38.6506 10.9514 38.6756 11.1533 38.6756C16.3745 38.6756 38.0883 22.6231 38.3658 19.8694C39.1945 11.6056 38.6902 6.7425 36.7789 4.56625ZM23.8651 3.1C24.142 2.84688 24.3595 2.75 24.5376 2.75C25.1114 2.75 25.2789 3.74625 25.687 3.74625C25.8208 3.74625 25.9814 3.63875 26.1908 3.3525C26.4483 2.99875 26.8258 2.85125 27.2014 2.85125C27.8945 2.85125 28.582 3.35438 28.4995 3.99125C28.4995 3.99125 25.8995 5.87875 24.7389 5.87875C24.6083 5.87875 24.4964 5.855 24.4083 5.80188C23.4502 5.23125 22.9808 3.90875 23.8651 3.1ZM17.2458 4.15625C17.4645 4.25938 17.6695 4.34188 17.8633 4.40313L17.4333 5.71375L21.8133 6.16875L21.7351 5.14313C22.0695 5.20375 22.4245 5.21875 22.7327 5.2225C22.9888 5.79151 23.4127 6.26865 23.9477 6.59C24.1727 6.72437 24.4389 6.79375 24.7389 6.79375C24.8508 6.79375 24.9701 6.77937 25.0933 6.75937C24.3848 7.3347 23.6967 7.93465 23.0301 8.55813C23.1483 7.6475 22.7614 7.14188 22.4758 6.9075C22.2596 6.72807 21.9873 6.63029 21.7064 6.63125C20.9352 6.63125 20.3426 7.30687 19.7145 8.02125C19.6658 8.07687 19.6101 8.14062 19.552 8.205L18.572 6.86188L14.0595 9.47375L15.5333 10.6006C15.3532 10.8552 15.2654 11.1637 15.2845 11.475C15.3514 12.6 16.6639 13.0869 17.9383 13.415C18.0802 13.4513 18.2289 13.47 18.3814 13.47C18.7039 13.47 19.0401 13.3825 19.3789 13.2312C18.9523 14.054 18.5478 14.8881 18.1658 15.7325L17.7214 15.5594L16.8202 15.2081L15.1326 13.3675L14.8314 13.0394L14.3908 13.0788L14.0964 13.105C14.5445 12.0312 14.3839 10.85 14.0445 10.205C13.8796 9.88883 13.6985 9.58134 13.502 9.28375L14.5827 8.77938L14.4239 6.70875L14.3976 6.69375C15.492 6.17312 16.7758 5.21688 17.2458 4.15625ZM21.2076 10.4075C21.1551 10.4663 21.0989 10.5275 21.0495 10.585C20.9181 10.7397 20.7932 10.8999 20.6752 11.065C19.9283 11.9019 19.0458 12.555 18.382 12.555C18.3079 12.5553 18.234 12.5465 18.162 12.5287C13.2489 11.2644 18.9639 9.84437 19.6864 9.34688C20.2014 8.99188 21.1264 7.54625 21.7058 7.54625C21.7776 7.54625 21.8445 7.56812 21.9039 7.6175C22.4689 8.08 22.012 9.29688 21.2076 10.4075ZM12.2201 24.8425C11.8001 24.8425 11.2526 24.4675 10.5151 23.4875C9.90452 22.6781 12.7158 18.9394 14.5314 18.9394C14.8858 18.9394 15.2027 19.0825 15.4489 19.4163C16.1677 20.3931 14.3208 20.8006 14.1301 21.0525C13.5739 21.7837 13.4201 24.8425 12.2201 24.8425ZM14.0533 28.2212L14.0445 28.2738C13.9838 28.6955 13.9185 29.1165 13.8489 29.5369L13.2901 28.87L13.942 28.09L14.0533 28.2212ZM12.5008 28.605L11.8495 29.3825L11.197 28.605L11.8495 27.8244L12.5008 28.605ZM11.5739 14.9563C11.7564 14.9563 11.9295 14.9325 12.0883 14.8869C12.4011 14.7913 12.6976 14.6489 12.9676 14.4644L13.6658 16.1831L9.17515 15.0931L8.59515 16.4606C7.96698 16.1408 7.2981 15.9083 6.60702 15.7694C7.37827 15.1469 7.90452 14.1762 8.24452 13.2837C8.89577 14.0025 10.4164 14.9563 11.5739 14.9563ZM10.6101 11.0469C10.8439 10.7656 11.0358 8.93437 11.7539 8.93437C12.1045 8.93437 12.5789 9.37 13.2458 10.6331C13.6708 11.4412 13.627 13.4863 11.8383 14.0075C11.7589 14.0306 11.6695 14.0413 11.5745 14.0413C10.7195 14.0413 9.31327 13.1763 8.8439 12.595C7.59265 11.0469 10.3964 11.3025 10.6101 11.0469ZM13.7201 16.3163L14.202 17.5031L14.3902 17.9644L14.8751 18.0562L14.9951 18.0788C14.8431 18.0433 14.6875 18.0253 14.5314 18.025C13.767 18.025 12.9901 18.415 12.2858 18.9675L13.7201 16.3163ZM14.4995 22.7038C14.5851 22.3838 14.7064 21.9262 14.8014 21.7025L14.922 21.6456C15.1802 21.5244 15.502 21.3713 15.7889 21.1556C15.397 22.03 15.0726 22.7013 14.8464 23.0087C14.7064 23.1994 14.5083 23.3638 14.2726 23.5106C14.3589 23.235 14.432 22.96 14.4995 22.7038ZM15.0152 18.0825L16.7276 18.4031L16.9658 18.4475L16.4883 19.5575C16.4353 19.308 16.328 19.0733 16.1739 18.87C15.8745 18.4631 15.4739 18.1931 15.0152 18.0825ZM16.8926 17.5037L15.0395 17.1569L13.777 14.0494L14.4677 13.9888L16.2983 15.985L17.3951 16.4125L16.8926 17.5037ZM11.2477 3.865C12.4145 3.4375 13.4289 2.165 14.6227 2.165C14.7301 2.165 14.8389 2.175 14.9483 2.19688C18.6514 2.93688 14.8845 5.6875 13.3883 6.12625L12.6026 5.68563L12.3364 5.92812C11.3977 5.4075 10.202 4.24688 11.2477 3.865ZM10.4439 5.53688C10.762 5.93125 11.1945 6.29 11.6358 6.56687L10.4308 7.665L10.5158 8.78187C10.2402 9.22062 10.0839 9.76313 9.96765 10.1688L9.93703 10.2744L9.89328 10.28C9.58953 10.32 9.22265 10.3719 8.87077 10.48C8.88452 9.8675 8.8014 9.08188 8.36452 8.55313C8.22237 8.37816 8.04266 8.23742 7.83872 8.14135C7.63478 8.04527 7.41183 7.99632 7.1864 7.99813C7.1364 7.99813 7.08515 8.0075 7.03515 8.01188C7.92452 7.20875 9.15827 6.33313 10.4439 5.53688ZM4.54577 12.785C6.48015 11.8725 4.74515 10.2475 6.33577 9.23187C6.68765 9.00688 6.9664 8.91313 7.1864 8.91313C8.08015 8.91313 8.00327 10.4637 7.91515 11.0744C7.8306 11.1787 7.76194 11.295 7.7114 11.4194C7.61514 11.6698 7.59471 11.943 7.65265 12.205C7.29827 13.4113 6.62827 14.9006 5.57577 15.3606C5.39236 15.4432 5.19377 15.4866 4.99265 15.4881C3.69327 15.4881 2.9289 13.5481 4.54577 12.785ZM5.2839 28.6119L5.69827 27.6475L6.52827 28.1713L6.1139 29.1356L5.2839 28.6119ZM5.76452 25.9769L6.38765 24.5256C6.4539 24.5388 6.53265 24.54 6.60577 24.5462L7.75452 25.2706L7.09202 26.8156L5.76452 25.9769ZM5.8514 30.3856L6.2664 29.4206L7.09577 29.945L6.68077 30.9081L5.8514 30.3856ZM7.6764 35.5725L7.22265 35.2869L6.96765 35.8794L6.13765 35.3575L6.55265 34.3919L7.0064 34.6787L7.26077 34.085L8.09077 34.6081L7.6764 35.5725ZM8.3514 29.6131L7.5214 29.0906L7.9364 28.125L8.7664 28.6494L8.3514 29.6131ZM6.3364 23.6375C7.42952 23.3956 8.80578 22.8062 9.6764 22.395C9.44578 23.0725 9.48202 23.6269 9.79452 24.0419C9.86077 24.13 9.92452 24.2075 9.98952 24.2887C8.69452 24.2431 7.38077 24.0187 6.3364 23.6375ZM10.0401 21.1963C9.78515 21.3563 6.7639 22.8344 5.49702 22.8344C4.9639 22.8344 4.7414 22.5719 5.16765 21.8381C5.17827 21.8319 5.18077 21.8287 5.17452 21.8287C5.10202 21.8287 3.82952 22.28 3.1589 22.28C2.82702 22.28 2.64327 22.1694 2.82515 21.8394C3.12077 21.3044 3.8389 21.165 4.32577 20.7994C4.26202 20.5162 1.0014 20.4719 2.59327 18.785C2.5939 18.7838 4.32452 16.5344 5.17765 16.5344C8.79953 16.535 12.1214 19.9075 10.0401 21.1963ZM10.8158 30.9081L11.467 31.6887L10.8158 32.4669L10.1633 31.6887L10.8158 30.9081ZM11.2164 36.6587L10.5639 35.8781L11.2164 35.1L11.8677 35.8781L11.2164 36.6587ZM11.6514 33.51L12.3033 32.7294L12.9552 33.51L12.3033 34.2894L11.6514 33.51ZM37.1883 19.7256C36.7151 21.5444 19.3601 34.985 12.6633 37.1606C13.5808 35.8181 14.5358 33.25 15.2201 28.4513C16.6495 18.4225 23.1476 4.29938 33.1152 4.29938C34.3795 4.29938 35.2376 4.63375 35.8964 5.38312C37.5445 7.25938 37.9658 11.9569 37.1883 19.7256Z" fill="#FFF7F7"/>
</svg>
